# xmcd
#
# Track frame offsets: 
#        150
#        17176
#        44955
#        68461
#        85249
#        118744
#        143052
#        164497
#        185789
#        215201
#        242952
#        266692
#        290641
#        307079
#
# Disc length: 4410 seconds
#
# Revision: 0
# Processed by: cddbd v1.4PL0 Copyright (c) Steve Scherf et al.
# Submitted via: ExactAudioCopy v0.90b4
#
DISCID=e611380e
DTITLE=Johnny Guitar Watson - You Need It - Anthology - Disc Two
DYEAR=2002
DGENRE=Funk
TTITLE0=Gangster Of Love
TTITLE1=What The Hell Is This
TTITLE2=Cop and Blow
TTITLE3=I Don't Want To Be President
TTITLE4=Strung Out
TTITLE5=Booty Ooty
TTITLE6=Love Jones
TTITLE7=Telephone Bill
TTITLE8=Lone Ranger
TTITLE9=Ain't Moving
TTITLE10=Come And Dance With Me
TTITLE11=Voodoo What You Do
TTITLE12=My Funk
TTITLE13=Johnny G. Is Back
EXTD=
EXTT0=
EXTT1=
EXTT2=
EXTT3=
EXTT4=
EXTT5=
EXTT6=
EXTT7=
EXTT8=
EXTT9=
EXTT10=
EXTT11=
EXTT12=
EXTT13=
PLAYORDER=
